<svg xmlns="http://www.w3.org/2000/svg" xmlns:xlink="http://www.w3.org/1999/xlink" viewBox="255 60 510 475" preserveAspectRatio="xMidYMid meet" version="1.0"><path fill="#fecd00" d="M 562.6875 79.71875 L 565.929688 81.402344 L 565.929688 83.398438 L 568.035156 83.617188 C 571.695312 84.605469 574.1875 86.546875 577.085938 88.882812 L 578.800781 90.238281 C 589.65625 98.898438 598.121094 107.808594 605.558594 119.550781 C 606.714844 121.4375 606.714844 121.4375 608.8125 122.292969 L 607.816406 118.304688 C 611.640625 117.066406 615.449219 117.167969 619.421875 117.175781 L 621.734375 117.171875 C 624.257812 117.167969 626.78125 117.167969 629.304688 117.171875 L 634.605469 117.171875 C 638.320312 117.167969 642.03125 117.171875 645.746094 117.175781 C 650.457031 117.179688 655.171875 117.179688 659.886719 117.171875 C 663.542969 117.167969 667.199219 117.167969 670.859375 117.171875 C 672.59375 117.171875 674.328125 117.171875 676.0625 117.171875 C 712.3125 117.132812 712.3125 117.132812 725.980469 124.050781 C 735.335938 129.53125 742.121094 135.460938 747.691406 144.792969 C 754.980469 157.699219 756.636719 171.867188 756.597656 186.46875 C 756.382812 201.144531 753.761719 214.015625 746.257812 226.761719 C 740.804688 234.808594 734.167969 240.464844 725.5 244.839844 C 714.910156 249.808594 705.128906 252.113281 693.46875 252.042969 L 690.878906 252.035156 C 688.164062 252.03125 685.453125 252.019531 682.738281 252.007812 C 680.894531 252 679.046875 251.996094 677.199219 251.992188 C 672.6875 251.980469 668.175781 251.964844 663.667969 251.945312 C 663.773438 260.015625 663.886719 268.085938 664.003906 276.160156 C 664.058594 279.90625 664.113281 283.65625 664.160156 287.402344 C 664.210938 291.023438 664.261719 294.644531 664.316406 298.269531 C 664.335938 299.644531 664.355469 301.023438 664.375 302.402344 C 664.398438 304.339844 664.425781 306.277344 664.460938 308.214844 C 664.472656 309.316406 664.488281 310.417969 664.507812 311.550781 C 664.609375 314.796875 664.609375 314.796875 665.164062 318.066406 C 665.625 321.492188 665.785156 324.710938 665.78125 328.160156 L 665.785156 331.929688 L 665.773438 336.007812 L 665.773438 340.34375 C 665.773438 344.25 665.769531 348.160156 665.761719 352.066406 C 665.753906 356.160156 665.753906 360.25 665.753906 364.339844 C 665.75 372.078125 665.742188 379.816406 665.734375 387.554688 C 665.722656 396.367188 665.714844 405.179688 665.710938 413.992188 C 665.699219 432.117188 665.683594 450.238281 665.660156 468.363281 L 668.417969 468.355469 C 676.972656 468.335938 685.53125 468.320312 694.085938 468.3125 C 698.484375 468.304688 702.886719 468.296875 707.285156 468.289062 C 711.527344 468.277344 715.769531 468.269531 720.011719 468.269531 C 721.632812 468.265625 723.253906 468.261719 724.875 468.257812 C 727.140625 468.25 729.40625 468.25 731.667969 468.25 L 735.582031 468.242188 L 738.464844 468.363281 L 739.460938 469.359375 C 739.5625 471.007812 739.589844 472.660156 739.59375 474.308594 L 739.601562 477.507812 L 739.59375 480.984375 L 739.597656 484.53125 C 739.597656 487.007812 739.597656 489.484375 739.59375 491.964844 C 739.585938 495.773438 739.59375 499.582031 739.597656 503.390625 C 739.597656 505.792969 739.597656 508.191406 739.59375 510.59375 L 739.601562 514.070312 L 739.589844 517.269531 L 739.589844 520.097656 L 739.460938 522.21875 L 738.464844 523.214844 C 736.800781 523.3125 735.128906 523.335938 733.460938 523.335938 L 730.175781 523.339844 L 726.542969 523.328125 L 722.738281 523.328125 C 719.289062 523.328125 715.835938 523.324219 712.386719 523.316406 C 708.78125 523.308594 705.179688 523.308594 701.574219 523.308594 C 694.746094 523.304688 687.921875 523.296875 681.09375 523.289062 C 673.324219 523.277344 665.550781 523.269531 657.78125 523.265625 C 641.789062 523.253906 625.800781 523.238281 609.8125 523.214844 L 608.8125 472.351562 C 606.097656 475.746094 603.53125 479.105469 601.023438 482.636719 C 590.195312 497.503906 575.5 510.21875 558.707031 518.050781 C 537.828125 526.980469 517.976562 531.070312 495.117188 529.199219 C 475.144531 526.753906 456.085938 519.710938 439.960938 507.589844 C 435.125 503.785156 430.703125 499.585938 426.304688 495.289062 L 423.816406 492.988281 C 418.851562 488.292969 415.214844 483.417969 411.753906 477.523438 L 410.347656 475.34375 L 408.351562 474.347656 L 408.351562 523.214844 L 352.503906 523.214844 L 352.503906 447.417969 L 315.601562 447.417969 L 315.601562 523.214844 L 259.75 523.214844 L 259.75 315.773438 L 306.625 315.773438 L 306.132812 305.300781 C 305.59375 292.824219 305.480469 280.367188 305.496094 267.878906 L 305.492188 261.265625 C 305.492188 256.695312 305.492188 252.125 305.5 247.554688 C 305.503906 241.75 305.5 235.941406 305.496094 230.136719 C 305.492188 225.601562 305.492188 221.070312 305.496094 216.535156 C 305.496094 214.394531 305.492188 212.253906 305.492188 210.117188 C 305.480469 197.425781 305.757812 184.820312 306.625 172.160156 L 304.558594 172.257812 C 293.324219 172.800781 282.097656 173.257812 270.847656 173.28125 L 268.15625 173.292969 C 261.992188 173.28125 261.992188 173.28125 259.75 172.160156 L 259.75 118.304688 C 263.714844 117.511719 266.777344 117.183594 270.75 117.1875 L 274.410156 117.183594 L 278.394531 117.191406 L 282.613281 117.191406 C 286.421875 117.191406 290.230469 117.195312 294.042969 117.207031 C 298.027344 117.210938 302.007812 117.210938 305.992188 117.214844 C 313.535156 117.214844 321.074219 117.222656 328.617188 117.234375 C 337.203125 117.242188 345.789062 117.25 354.375 117.257812 C 372.035156 117.265625 389.695312 117.285156 407.355469 117.304688 L 409.347656 122.292969 L 410.238281 120.820312 C 419.996094 105.398438 432.613281 92.78125 448.246094 83.398438 L 450.488281 81.882812 C 462.8125 73.773438 477.691406 69.683594 492.128906 67.441406 L 496.054688 66.753906 C 519.351562 64.410156 541.855469 69.339844 562.6875 79.71875 M 663.667969 168.167969 C 663.640625 172.980469 663.625 177.789062 663.613281 182.601562 C 663.605469 184.238281 663.597656 185.878906 663.589844 187.515625 C 663.578125 189.863281 663.574219 192.214844 663.570312 194.5625 L 663.554688 196.796875 C 663.554688 198.554688 663.605469 200.316406 663.667969 202.078125 L 664.664062 203.074219 C 666.261719 203.175781 667.863281 203.207031 669.464844 203.207031 L 672.464844 203.210938 L 675.632812 203.199219 L 678.707031 203.210938 C 689.0625 203.351562 689.0625 203.351562 699.09375 201.171875 C 701.820312 199.472656 703.972656 198.007812 705.71875 195.269531 C 707.710938 190.53125 708.03125 186.214844 707.546875 181.132812 C 706.296875 177.1875 705.175781 174.773438 702.25 171.847656 C 698.3125 169.375 694.8125 168.25 690.160156 167.941406 C 688.9375 167.953125 687.714844 167.960938 686.457031 167.976562 L 684.46875 167.984375 C 682.398438 167.992188 680.324219 168.019531 678.253906 168.042969 C 676.835938 168.054688 675.421875 168.0625 674.007812 168.070312 C 670.5625 168.09375 667.113281 168.128906 663.667969 168.167969 M 494.929688 173.390625 C 490.445312 177.765625 487.238281 182.34375 485.472656 188.433594 C 481.707031 203.894531 479.339844 220.480469 482.191406 236.285156 C 483.300781 239.402344 484.550781 240.847656 487.015625 243.03125 C 488.363281 244.039062 489.734375 245.015625 491.128906 245.960938 C 493.320312 247.453125 493.320312 247.453125 495.117188 248.953125 L 496.117188 251.945312 L 494.371094 252.628906 C 491.5625 254.269531 490.050781 256.328125 488.136719 258.925781 C 488.875 260.199219 489.625 261.464844 490.382812 262.726562 L 491.644531 264.867188 C 493.234375 267.058594 494.882812 268.386719 497.113281 269.894531 L 499.34375 267.8125 C 504.289062 263.226562 509.242188 258.722656 514.503906 254.5 L 517.167969 252.257812 C 519.242188 250.601562 521.390625 249.050781 523.621094 247.609375 C 527.484375 244.886719 530.816406 242.246094 533.015625 237.980469 C 534.816406 229.796875 533.808594 221.308594 533.015625 213.046875 C 532.90625 211.503906 532.800781 209.957031 532.699219 208.414062 C 531.75 198.144531 529.171875 187.203125 524.042969 178.140625 C 520.734375 174.378906 517.824219 171.804688 513.070312 170.164062 C 506.464844 169.316406 500.402344 169.25 494.929688 173.390625 M 362.476562 172.160156 L 361.476562 173.15625 C 361.390625 175 361.347656 176.84375 361.359375 178.691406 L 361.355469 182.332031 L 361.363281 186.359375 L 361.363281 190.574219 C 361.363281 194.402344 361.371094 198.230469 361.378906 202.054688 C 361.382812 206.050781 361.382812 210.042969 361.386719 214.039062 C 361.386719 221.609375 361.394531 229.179688 361.40625 236.746094 C 361.417969 245.363281 361.425781 253.976562 361.429688 262.59375 C 361.4375 280.320312 361.457031 298.046875 361.476562 315.773438 L 408.351562 315.773438 L 408.351562 351.675781 L 411.34375 350.679688 C 413.039062 348.511719 414.660156 346.289062 416.207031 344.011719 C 420.703125 337.46875 425.023438 331.492188 431.351562 326.558594 C 436.160156 322.71875 440.707031 318.695312 445.191406 314.496094 C 447.769531 312.089844 450.363281 309.839844 453.230469 307.792969 C 452.203125 304.496094 450.769531 302.140625 448.617188 299.503906 C 445.515625 295.503906 443.265625 291.238281 441.015625 286.726562 L 439.984375 284.667969 C 438.523438 281.679688 437.28125 278.890625 436.324219 275.695312 C 435.058594 272.300781 433.386719 270.527344 430.792969 268.027344 L 428.390625 265.664062 L 426.304688 263.910156 L 424.308594 263.910156 L 423.507812 262.132812 C 422.285156 259.863281 420.972656 258.347656 419.199219 256.496094 C 406.246094 241.953125 398.96875 222.804688 394.976562 203.957031 C 392.933594 193.394531 393.109375 182.875 393.390625 172.160156 C 389.007812 172.132812 384.621094 172.117188 380.238281 172.105469 C 378.746094 172.097656 377.253906 172.089844 375.757812 172.082031 C 373.617188 172.070312 371.476562 172.066406 369.335938 172.0625 L 365.425781 172.042969 Z M 605.820312 244.964844 C 604.105469 246.921875 602.484375 248.957031 600.960938 251.070312 C 600.113281 252.21875 599.261719 253.363281 598.410156 254.507812 L 597.132812 256.234375 C 594.003906 260.363281 590.765625 264.214844 586.8125 267.589844 L 584.84375 269.285156 C 582.882812 270.894531 582.882812 270.894531 580.765625 272.3125 C 578.773438 273.777344 578.773438 273.777344 577.808594 276.007812 L 576.960938 278.433594 C 571.941406 291.777344 564.542969 303.117188 553.960938 312.78125 L 555.957031 314.777344 L 561.941406 308.792969 C 566.394531 310.191406 568.691406 312.464844 571.914062 315.773438 L 574.90625 316.769531 L 575.902344 319.761719 C 578.277344 321.976562 578.277344 321.976562 580.886719 323.75 L 582.882812 323.75 L 582.882812 325.746094 C 584.398438 327.238281 584.398438 327.238281 586.375 328.800781 C 592.785156 334.269531 598.328125 339.941406 601.832031 347.6875 C 602.808594 348.703125 603.808594 349.703125 604.824219 350.679688 L 606.382812 353.359375 L 607.816406 355.664062 L 609.8125 355.664062 C 609.835938 351.84375 609.855469 348.019531 609.867188 344.199219 C 609.875 342.292969 609.886719 340.390625 609.898438 338.484375 C 609.917969 330.511719 609.6875 322.582031 609.3125 314.617188 C 608.652344 300.378906 608.703125 286.144531 608.75 271.890625 C 608.757812 269.261719 608.761719 266.632812 608.765625 264 C 608.777344 257.65625 608.792969 251.308594 608.8125 244.964844 Z M 551.964844 313.777344 C 550.558594 314.726562 549.195312 315.734375 547.851562 316.769531 L 545.664062 318.453125 L 543.988281 319.761719 L 547.976562 321.757812 C 548.980469 320.804688 549.976562 319.851562 550.96875 318.890625 L 552.652344 317.277344 L 553.960938 315.773438 L 553.960938 313.777344 Z M 315.601562 325.746094 L 315.601562 392.566406 L 352.503906 392.566406 L 352.503906 325.746094 Z M 499.109375 369.628906 C 493.316406 373.835938 490.609375 378.496094 487.617188 384.960938 C 485.636719 389.824219 484.660156 394.34375 484.148438 399.546875 L 483.820312 402.324219 C 482.132812 418.839844 481.515625 438.453125 488.011719 454.074219 C 491.128906 460.507812 494.277344 465.144531 500.105469 469.359375 C 502.484375 470.8125 504.136719 471.359375 506.925781 471.726562 C 510.035156 471.792969 512.976562 471.761719 516.0625 471.355469 C 519.074219 469.421875 519.074219 469.421875 521.050781 466.367188 L 522.492188 464.972656 C 527.953125 459.566406 529.988281 452.6875 532.019531 445.425781 C 535.917969 429.1875 536.035156 408.789062 532.019531 392.566406 C 529.507812 384.574219 526.835938 377.210938 520.675781 371.375 C 516.925781 368.871094 513.632812 367.765625 509.144531 367.382812 C 505.496094 367.683594 502.542969 368.339844 499.109375 369.628906 " fill-opacity="1" fill-rule="nonzero"/><path fill="#000000" d="M 260.75 117.304688 C 262.640625 117.210938 264.539062 117.183594 266.433594 117.1875 L 270.175781 117.183594 L 274.320312 117.191406 L 278.652344 117.191406 C 282.585938 117.191406 286.519531 117.195312 290.453125 117.203125 C 294.558594 117.210938 298.667969 117.210938 302.773438 117.214844 C 310.554688 117.214844 318.335938 117.222656 326.117188 117.234375 C 334.972656 117.242188 343.828125 117.25 352.683594 117.257812 C 370.910156 117.265625 389.132812 117.28125 407.355469 117.304688 C 408.480469 124.921875 408.480469 124.921875 407.316406 128.191406 C 406.792969 129.082031 406.273438 129.976562 405.734375 130.894531 C 398.628906 144.097656 395.863281 157.511719 393.390625 172.160156 C 389.734375 172.328125 386.078125 172.492188 382.421875 172.65625 L 379.308594 172.800781 L 376.25 172.9375 L 373.464844 173.0625 C 369.804688 173.175781 366.136719 173.15625 362.476562 173.15625 L 361.476562 315.773438 L 408.351562 315.773438 L 408.789062 334.285156 L 408.980469 340.027344 C 409.207031 351.695312 406.957031 359.488281 401.371094 369.628906 C 393.652344 388.222656 391.410156 408.953125 393.859375 428.863281 C 395.617188 439.34375 398.308594 451.722656 403.886719 460.882812 C 408.324219 468.597656 408.886719 475.175781 408.9375 483.964844 C 408.925781 488.679688 408.824219 493.378906 408.726562 498.097656 L 408.351562 523.214844 L 352.503906 523.214844 L 352.503906 447.417969 L 315.601562 447.417969 L 315.601562 523.214844 L 259.75 523.214844 L 259.75 315.773438 L 306.625 315.773438 L 306.132812 305.300781 C 305.59375 292.824219 305.480469 280.367188 305.496094 267.878906 L 305.492188 261.265625 C 305.492188 256.695312 305.492188 252.125 305.5 247.554688 C 305.503906 241.75 305.5 235.941406 305.496094 230.136719 C 305.492188 225.601562 305.492188 221.070312 305.496094 216.535156 C 305.496094 214.394531 305.492188 212.253906 305.492188 210.117188 C 305.480469 197.425781 305.757812 184.820312 306.625 172.160156 L 304.558594 172.257812 C 293.324219 172.800781 282.097656 173.257812 270.847656 173.28125 L 268.15625 173.292969 C 261.992188 173.28125 261.992188 173.28125 259.75 172.160156 C 259.726562 164.507812 259.707031 156.855469 259.695312 149.203125 C 259.691406 146.597656 259.683594 143.992188 259.675781 141.386719 C 259.664062 137.652344 259.660156 133.917969 259.652344 130.179688 L 259.636719 126.625 L 259.636719 123.359375 L 259.632812 120.46875 L 259.75 118.304688 Z M 315.601562 325.746094 L 315.601562 392.566406 L 352.503906 392.566406 L 352.503906 325.746094 Z M 608.8125 117.304688 C 611.339844 117.207031 613.839844 117.171875 616.363281 117.175781 L 618.761719 117.171875 C 621.402344 117.167969 624.039062 117.167969 626.675781 117.171875 C 628.515625 117.171875 630.351562 117.171875 632.191406 117.171875 C 636.0625 117.167969 639.933594 117.171875 643.804688 117.175781 C 648.722656 117.179688 653.640625 117.179688 658.5625 117.171875 C 662.371094 117.167969 666.179688 117.167969 669.988281 117.171875 C 671.796875 117.171875 673.609375 117.171875 675.417969 117.171875 C 712.316406 117.132812 712.316406 117.132812 725.980469 124.050781 C 735.339844 129.53125 742.121094 135.460938 747.691406 144.792969 C 754.980469 157.699219 756.640625 171.867188 756.597656 186.46875 C 756.382812 201.144531 753.761719 214.015625 746.257812 226.761719 C 740.804688 234.808594 734.167969 240.464844 725.5 244.839844 C 714.910156 249.808594 705.128906 252.113281 693.46875 252.042969 L 690.878906 252.035156 C 688.164062 252.03125 685.453125 252.019531 682.738281 252.007812 C 680.894531 252 679.046875 251.996094 677.199219 251.992188 C 672.6875 251.980469 668.175781 251.964844 663.667969 251.945312 C 663.773438 260.015625 663.886719 268.085938 664.003906 276.160156 C 664.058594 279.90625 664.113281 283.65625 664.164062 287.402344 C 664.210938 291.023438 664.261719 294.644531 664.316406 298.269531 C 664.335938 299.644531 664.355469 301.023438 664.375 302.402344 C 664.398438 304.339844 664.425781 306.277344 664.460938 308.214844 L 664.507812 311.550781 C 664.609375 314.796875 664.609375 314.796875 665.164062 318.066406 C 665.625 321.492188 665.785156 324.710938 665.78125 328.160156 L 665.785156 331.929688 L 665.773438 336.007812 L 665.773438 340.34375 C 665.773438 344.25 665.769531 348.160156 665.761719 352.066406 C 665.757812 356.160156 665.757812 360.25 665.753906 364.339844 C 665.75 372.078125 665.742188 379.816406 665.734375 387.554688 C 665.722656 396.367188 665.714844 405.179688 665.710938 413.992188 C 665.699219 432.117188 665.683594 450.238281 665.660156 468.363281 L 668.417969 468.355469 C 676.972656 468.335938 685.53125 468.320312 694.085938 468.3125 C 698.484375 468.304688 702.886719 468.296875 707.285156 468.289062 C 711.527344 468.277344 715.769531 468.269531 720.011719 468.269531 C 721.632812 468.265625 723.253906 468.261719 724.878906 468.257812 C 727.140625 468.25 729.40625 468.25 731.667969 468.25 L 735.582031 468.242188 L 738.464844 468.363281 L 739.460938 469.359375 C 739.5625 471.007812 739.589844 472.660156 739.59375 474.308594 L 739.601562 477.507812 L 739.59375 480.984375 L 739.597656 484.53125 C 739.597656 487.007812 739.597656 489.484375 739.59375 491.964844 C 739.585938 495.773438 739.59375 499.582031 739.597656 503.390625 C 739.597656 505.792969 739.597656 508.191406 739.59375 510.59375 L 739.601562 514.070312 L 739.589844 517.269531 L 739.589844 520.097656 L 739.460938 522.21875 L 738.464844 523.214844 C 736.800781 523.3125 735.128906 523.335938 733.460938 523.335938 L 730.175781 523.339844 L 726.542969 523.328125 L 722.738281 523.328125 C 719.289062 523.328125 715.835938 523.324219 712.386719 523.316406 C 708.78125 523.308594 705.179688 523.308594 701.574219 523.308594 C 694.746094 523.304688 687.921875 523.296875 681.09375 523.289062 C 673.324219 523.277344 665.550781 523.269531 657.78125 523.265625 C 641.789062 523.253906 625.800781 523.238281 609.8125 523.214844 C 609.539062 515.890625 609.3125 508.5625 609.109375 501.234375 C 609.039062 498.746094 608.957031 496.257812 608.863281 493.769531 C 608.738281 490.175781 608.628906 486.585938 608.542969 482.992188 L 608.402344 479.660156 C 608.25 471.757812 610.101562 466.3125 613.800781 459.386719 C 616.417969 453.085938 618.273438 447.257812 618.785156 440.4375 L 620.78125 440.4375 C 622.738281 422.25 623.179688 405.722656 620.058594 387.648438 C 619.785156 385.585938 619.785156 385.585938 619.785156 381.597656 L 617.789062 380.597656 C 617.289062 378.667969 616.796875 376.738281 616.351562 374.792969 C 615.191406 370.265625 613.222656 366.292969 610.71875 362.367188 C 607.632812 356.1875 608.433594 349.429688 608.628906 342.699219 C 608.683594 340.0625 608.730469 337.421875 608.769531 334.785156 L 608.804688 332.667969 C 608.871094 326.640625 608.640625 320.640625 608.363281 314.621094 C 607.761719 301.519531 607.425781 288.425781 607.304688 275.316406 C 607.269531 272.683594 607.222656 270.054688 607.160156 267.425781 C 606.558594 242.003906 606.558594 242.003906 611.757812 232.46875 C 612.472656 231.289062 613.199219 230.121094 613.941406 228.964844 C 616.433594 225 616.992188 221.609375 617.789062 217.039062 L 619.285156 213.921875 C 621.53125 209.125 621.753906 203.714844 622.347656 198.511719 C 622.777344 195.097656 622.777344 195.097656 623.316406 193.117188 C 626.367188 179.769531 623.195312 163.339844 619.460938 150.4375 C 616.992188 142.480469 613.914062 135.148438 610.007812 127.777344 C 608.441406 124.507812 607.894531 121.914062 607.816406 118.304688 Z M 663.667969 168.167969 C 663.640625 172.980469 663.625 177.789062 663.613281 182.601562 C 663.605469 184.238281 663.597656 185.878906 663.589844 187.515625 C 663.578125 189.863281 663.574219 192.214844 663.570312 194.5625 L 663.554688 196.796875 C 663.554688 198.554688 663.605469 200.316406 663.667969 202.078125 L 664.664062 203.074219 C 666.261719 203.175781 667.863281 203.207031 669.464844 203.207031 L 672.464844 203.210938 L 675.632812 203.199219 L 678.707031 203.210938 C 689.0625 203.351562 689.0625 203.351562 699.09375 201.171875 C 701.820312 199.472656 703.972656 198.007812 705.71875 195.269531 C 707.710938 190.53125 708.03125 186.214844 707.546875 181.132812 C 706.296875 177.1875 705.175781 174.773438 702.25 171.847656 C 698.3125 169.375 694.8125 168.25 690.160156 167.941406 C 688.9375 167.953125 687.714844 167.960938 686.457031 167.976562 L 684.46875 167.984375 C 682.398438 167.992188 680.324219 168.019531 678.253906 168.042969 C 676.835938 168.054688 675.421875 168.0625 674.007812 168.070312 C 670.5625 168.09375 667.113281 168.128906 663.667969 168.167969 M 761.402344 315.773438 C 763.058594 315.683594 764.714844 315.644531 766.371094 315.652344 L 769.628906 315.648438 L 773.234375 315.660156 L 777.007812 315.660156 C 780.433594 315.660156 783.859375 315.664062 787.28125 315.671875 C 790.859375 315.679688 794.433594 315.679688 798.007812 315.679688 C 804.78125 315.683594 811.558594 315.691406 818.332031 315.699219 C 826.042969 315.710938 833.753906 315.71875 841.464844 315.722656 C 857.328125 315.734375 873.195312 315.75 889.0625 315.773438 C 889.75 319.066406 890.179688 322.074219 890.171875 325.445312 L 890.171875 328.203125 L 890.15625 331.0625 L 890.152344 333.722656 C 890.148438 336.984375 890.132812 340.246094 890.121094 343.511719 L 890.058594 365.640625 L 816.257812 365.640625 L 816.257812 394.5625 L 822.921875 394.546875 C 830.175781 394.53125 837.429688 394.519531 844.683594 394.507812 C 849.082031 394.503906 853.480469 394.496094 857.878906 394.488281 C 862.121094 394.476562 866.363281 394.46875 870.605469 394.464844 C 872.230469 394.464844 873.851562 394.460938 875.472656 394.457031 C 877.738281 394.449219 880 394.445312 882.265625 394.449219 L 886.175781 394.441406 L 889.0625 394.5625 L 890.058594 395.558594 C 890.15625 397.019531 890.203125 398.480469 890.203125 399.941406 L 890.222656 402.765625 L 890.226562 405.839844 L 890.234375 408.972656 C 890.242188 411.167969 890.242188 413.359375 890.242188 415.550781 C 890.246094 418.914062 890.261719 422.28125 890.28125 425.644531 C 890.285156 427.769531 890.289062 429.894531 890.289062 432.019531 L 890.308594 435.085938 L 890.300781 437.917969 L 890.304688 440.421875 L 890.058594 442.433594 L 888.0625 444.425781 C 885.058594 444.667969 885.058594 444.667969 881.152344 444.652344 L 879 444.652344 C 876.648438 444.652344 874.296875 444.636719 871.941406 444.621094 L 867.054688 444.613281 C 862.761719 444.605469 858.46875 444.585938 854.175781 444.5625 C 849.800781 444.542969 845.421875 444.535156 841.042969 444.523438 C 832.445312 444.503906 823.851562 444.46875 815.257812 444.425781 L 816.257812 446.421875 L 816.257812 473.347656 L 889.0625 472.351562 L 890.058594 523.214844 C 873.300781 523.238281 856.542969 523.257812 839.785156 523.265625 C 832.007812 523.273438 824.226562 523.28125 816.445312 523.289062 C 809.667969 523.300781 802.886719 523.308594 796.109375 523.308594 C 792.519531 523.308594 788.925781 523.3125 785.335938 523.320312 C 781.332031 523.328125 777.328125 523.328125 773.328125 523.328125 L 769.691406 523.339844 L 766.410156 523.335938 L 763.535156 523.339844 L 761.402344 523.214844 L 760.40625 522.21875 C 760.308594 519.574219 760.273438 516.953125 760.28125 514.304688 L 760.273438 511.761719 C 760.269531 508.929688 760.273438 506.09375 760.277344 503.261719 L 760.273438 497.195312 C 760.269531 491.683594 760.269531 486.171875 760.273438 480.664062 C 760.273438 474.910156 760.273438 469.160156 760.273438 463.40625 C 760.269531 453.746094 760.269531 444.082031 760.277344 434.421875 C 760.28125 423.234375 760.28125 412.042969 760.273438 400.855469 C 760.269531 391.269531 760.269531 381.683594 760.273438 372.09375 C 760.273438 366.359375 760.273438 360.628906 760.269531 354.894531 C 760.269531 349.503906 760.269531 344.113281 760.277344 338.726562 C 760.277344 336.742188 760.273438 334.757812 760.273438 332.773438 C 760.273438 330.074219 760.273438 327.378906 760.28125 324.683594 L 760.273438 322.269531 C 760.28125 320.4375 760.335938 318.601562 760.40625 316.769531 Z M 159.707031 114.8125 C 160.449219 114.800781 161.1875 114.792969 161.949219 114.78125 C 176.6875 114.617188 189.5 117.335938 202.621094 124.316406 C 213.066406 130.578125 220.875 138.589844 226.953125 149.160156 C 236.671875 166.878906 236.671875 166.878906 236.875 175.917969 L 236.8125 178.140625 C 231.515625 180.179688 226.222656 182.003906 220.777344 183.609375 L 218.558594 184.265625 C 217.027344 184.71875 215.496094 185.171875 213.964844 185.621094 C 211.621094 186.308594 209.28125 187.007812 206.941406 187.707031 L 202.453125 189.03125 L 200.34375 189.664062 C 197.019531 190.628906 194.433594 191.109375 190.9375 191.109375 L 190.492188 189.207031 C 189.0625 183.753906 187.335938 179.367188 183.765625 174.976562 C 180.085938 171.261719 175.804688 167.976562 170.730469 166.527344 C 162.792969 165.5 153.527344 165.023438 145.808594 167.421875 C 142.371094 168.867188 139.554688 170.296875 137.082031 173.15625 C 136.113281 175.878906 135.609375 178.273438 136.082031 181.132812 C 137.453125 183.800781 137.453125 183.800781 140.074219 186.121094 C 143.078125 187.839844 146.214844 189.128906 149.421875 190.421875 L 152.203125 191.578125 C 160.734375 195.085938 169.402344 198.210938 178.085938 201.324219 C 193.484375 206.847656 209.617188 213.875 221.851562 225.015625 L 224.390625 227.308594 C 231.878906 234.425781 237.324219 241.902344 240.28125 251.871094 C 243.253906 263.644531 242.128906 276.128906 239.03125 287.765625 C 235.914062 297.246094 230.257812 305.113281 223.066406 311.972656 C 213.5625 319.734375 200.882812 324.332031 188.941406 326.558594 C 171.113281 329.453125 151.226562 329.949219 134.089844 323.75 L 130.792969 322.621094 C 123.933594 320.039062 118.675781 316.539062 113.144531 311.785156 L 111.355469 310.464844 C 102.609375 303.796875 96.824219 293.113281 92.484375 283.226562 C 90.320312 277.558594 88.710938 271.78125 87.214844 265.90625 C 89.3125 263.808594 90.273438 263.414062 93.035156 262.570312 L 95.414062 261.835938 L 97.992188 261.066406 L 100.636719 260.261719 C 102.484375 259.703125 104.335938 259.148438 106.183594 258.59375 C 109.015625 257.742188 111.84375 256.882812 114.667969 256.011719 C 116.464844 255.472656 118.257812 254.933594 120.054688 254.394531 L 122.621094 253.605469 L 125.019531 252.898438 L 127.121094 252.265625 C 129.101562 251.945312 129.101562 251.945312 131.242188 252.207031 L 133.089844 252.941406 C 134.867188 255.734375 134.867188 255.734375 136.582031 259.238281 C 138.695312 263.527344 140.617188 266.597656 144.0625 269.894531 L 144.0625 271.890625 L 145.953125 272.511719 L 148.425781 273.324219 L 150.878906 274.128906 C 153.039062 274.882812 153.039062 274.882812 155.03125 275.878906 C 164.367188 276.746094 174.535156 277.09375 183.179688 273.152344 C 185.328125 271.625 186.570312 270.152344 187.945312 267.902344 C 188.566406 263.8125 188.566406 263.8125 187.945312 259.921875 C 178.964844 249.8125 163.953125 245.859375 151.542969 241.410156 C 109.074219 226.085938 109.074219 226.085938 93.945312 208.4375 C 88.523438 201.417969 85.425781 194.429688 83.472656 185.808594 C 82.597656 172.890625 82.855469 159.878906 88.398438 147.910156 C 93.558594 138.71875 99.933594 131.886719 108.816406 126.25 C 113.789062 123.320312 118.625 121.082031 124.117188 119.300781 L 127.628906 118.117188 C 138.132812 115.011719 148.839844 114.886719 159.707031 114.8125 " fill-opacity="1" fill-rule="nonzero"/><path fill="#d9d9d9" d="M 577.898438 275.878906 L 578.894531 277.875 C 577.988281 279.824219 577.066406 281.765625 576.058594 283.664062 C 575.351562 285 574.683594 286.355469 574.0625 287.730469 C 569.609375 297.585938 562.207031 306.8125 553.960938 313.777344 C 551.585938 315.386719 549.152344 316.90625 546.667969 318.34375 L 544.984375 319.761719 L 544.984375 323.75 C 543.191406 325.789062 543.191406 325.789062 540.683594 327.929688 L 537.949219 330.285156 C 534.121094 333.476562 530.265625 336.636719 526.382812 339.761719 C 524.488281 341.332031 522.742188 342.917969 521.050781 344.695312 C 522.539062 348.28125 524.566406 350.3125 527.46875 352.859375 L 530.171875 355.242188 C 532.933594 357.589844 535.738281 359.875 538.5625 362.148438 C 548.917969 370.605469 556.640625 379.230469 562.289062 391.507812 C 566.109375 401.625 566.632812 412.570312 565.304688 423.234375 C 563.4375 433.304688 559.222656 442.328125 552.964844 450.410156 C 550.59375 453.027344 550.59375 453.027344 547.976562 455.398438 L 546.3125 457.039062 C 540.222656 462.800781 533.167969 466.960938 525.046875 469.175781 C 522.730469 469.65625 520.402344 470.046875 518.058594 470.359375 L 517.058594 468.363281 L 518.445312 467.335938 C 522.496094 464.136719 525.109375 461.242188 527.195312 456.507812 L 528.03125 454.402344 L 528.863281 452.386719 C 535.011719 435.980469 534.351562 415.964844 532.332031 398.800781 C 530.953125 390.863281 528.257812 382.980469 524.101562 376.046875 C 521.582031 373.066406 519.574219 371.382812 516.0625 369.628906 C 511.28125 368.546875 507.113281 368.445312 502.289062 369.316406 C 498.875 370.722656 496.835938 372.121094 494.121094 374.613281 C 489.175781 382.394531 486.050781 390.363281 485.144531 399.546875 L 484.820312 402.324219 C 483.128906 418.84375 482.519531 438.441406 489.003906 454.070312 C 491.359375 458.925781 493.691406 463.050781 497.675781 466.742188 C 499.769531 468.140625 501.796875 469.335938 504.09375 470.359375 C 501.644531 471.195312 499.972656 471.339844 497.371094 471.078125 C 486.824219 468.855469 477.875 464.257812 469.375 457.640625 C 460.949219 449.726562 455.605469 440.433594 452.234375 429.46875 L 451.496094 427.074219 C 448.882812 417.164062 449.785156 406.410156 452.234375 396.554688 C 456.449219 383.292969 464.378906 373.964844 474.449219 364.710938 C 479.097656 360.523438 483.851562 356.507812 488.769531 352.640625 C 491.386719 350.46875 493.730469 348.109375 496.117188 345.691406 C 497.203125 344.71875 498.304688 343.761719 499.421875 342.824219 C 501.851562 340.769531 504.261719 338.691406 506.652344 336.589844 C 510.875 332.886719 515.148438 329.230469 519.421875 325.578125 C 523.226562 322.320312 527.015625 319.042969 530.796875 315.75 C 535.699219 311.484375 540.609375 307.257812 545.671875 303.179688 C 550.707031 299.109375 555.449219 294.765625 560.203125 290.371094 C 563.378906 287.441406 566.550781 284.574219 569.917969 281.863281 L 571.914062 281.863281 L 572.910156 278.871094 C 575.464844 277.1875 575.464844 277.1875 577.898438 275.878906 M 532.019531 129.273438 C 540.164062 133.113281 547.175781 138.34375 552.964844 145.230469 L 554.820312 147.425781 C 560.453125 154.71875 563.777344 163.140625 565.265625 172.203125 C 566.777344 184.074219 565.472656 195.214844 561.144531 206.394531 C 556.582031 216.527344 550.367188 223.875 541.992188 231 C 540.496094 232.308594 539 233.617188 537.503906 234.929688 L 534.015625 237.980469 L 532.019531 236.984375 C 532.03125 236.34375 532.039062 235.703125 532.050781 235.039062 C 532.296875 217.707031 532.109375 201.691406 526.15625 185.234375 C 525.039062 182.132812 525.039062 182.132812 524.574219 179.777344 L 524.042969 178.140625 L 521.050781 177.144531 L 516.0625 172.160156 C 511.125 170.511719 506.25 170.613281 501.101562 171.160156 C 496.945312 172.511719 494.351562 174.792969 491.449219 177.996094 C 484.554688 187.6875 483.523438 201.464844 482.324219 213.027344 C 481.617188 221.367188 482.238281 229.6875 483.152344 237.980469 C 476.761719 233.433594 470.917969 228.386719 465.199219 223.023438 L 462.632812 220.722656 C 459.75 217.523438 458.234375 214.4375 456.597656 210.492188 L 455.695312 208.355469 C 450.9375 196.78125 449.097656 186.210938 450.671875 173.714844 C 452.511719 163.492188 456.25 154.09375 462.722656 145.929688 C 470.101562 137.203125 478.929688 130.996094 489.679688 127.054688 C 504.21875 122.449219 518.015625 123.542969 532.019531 129.273438 M 487.140625 257.929688 C 489.136719 258.925781 489.136719 258.925781 490.351562 260.628906 L 491.628906 262.726562 L 492.90625 264.804688 C 494.050781 266.792969 495.121094 268.824219 496.117188 270.894531 L 494.101562 272.507812 C 489.15625 276.503906 484.339844 280.550781 479.660156 284.855469 C 475.195312 288.964844 470.578125 292.828125 465.859375 296.640625 C 461.875 299.910156 458.046875 303.339844 454.230469 306.796875 C 444.796875 298.222656 440.003906 287.453125 435.28125 275.878906 L 438.273438 274.882812 L 452.234375 287.847656 L 457.84375 283.109375 L 459.734375 281.519531 C 462.871094 278.875 465.980469 276.195312 469.0625 273.484375 L 470.957031 271.824219 C 472.175781 270.757812 473.386719 269.6875 474.589844 268.609375 C 476.066406 267.320312 477.609375 266.105469 479.160156 264.910156 L 482.152344 264.910156 L 482.964844 262.539062 L 484.148438 259.921875 Z M 487.140625 257.929688 " fill-opacity="1" fill-rule="nonzero"/></svg>
