<svg xmlns="http://www.w3.org/2000/svg" xmlns:xlink="http://www.w3.org/1999/xlink" viewBox="150 220 1030 510" preserveAspectRatio="xMidYMid meet" version="1.0"><defs><g/></defs><g fill="#000000" fill-opacity="1"><g transform="translate(368.62178, 709.077582)"><g><path d="M 192 -250 L 192 0 L 125.5 0 L 125.5 -92 L 80.5 -92 L 80.5 0 L 14 0 L 14 -250 L 80.5 -250 L 80.5 -158 L 125.5 -158 L 125.5 -250 Z M 192 -250 "/></g></g></g><g fill="#ffffff" fill-opacity="1"><g transform="translate(575.129582, 709.077582)"><g><path d="M 107 3.5 C 76.664062 3.5 53.164062 -7.664062 36.5 -30 C 19.832031 -52.332031 11.5 -84 11.5 -125 C 11.5 -166 19.832031 -197.664062 36.5 -220 C 53.164062 -242.332031 76.664062 -253.5 107 -253.5 C 137.664062 -253.5 161.332031 -242.332031 178 -220 C 194.664062 -197.664062 203 -166 203 -125 C 203 -84 194.664062 -52.332031 178 -30 C 161.332031 -7.664062 137.664062 3.5 107 3.5 Z M 107.5 -63 C 117.164062 -63 124.582031 -68.332031 129.75 -79 C 134.914062 -89.664062 137.664062 -105 138 -125 C 137.664062 -145 134.914062 -160.332031 129.75 -171 C 124.582031 -181.664062 117.164062 -187 107.5 -187 C 97.5 -187 89.832031 -181.664062 84.5 -171 C 79.164062 -160.332031 76.5 -145 76.5 -125 C 76.5 -105 79.164062 -89.664062 84.5 -79 C 89.832031 -68.332031 97.5 -63 107.5 -63 Z M 107.5 -63 "/></g></g></g><g fill="#000000" fill-opacity="1"><g transform="translate(789.629572, 709.077582)"><g><path d="M 169.5 -66.5 L 169.5 0 L 14 0 L 14 -250 L 80.5 -250 L 80.5 -66.5 Z M 169.5 -66.5 "/></g></g></g><g fill="#000000" fill-opacity="1"><g transform="translate(971.12687, 709.077582)"><g><path d="M 80.5 -189.5 L 80.5 -154.5 L 169.5 -154.5 L 169.5 -95.5 L 80.5 -95.5 L 80.5 -60.5 L 169.5 -60.5 L 169.5 0 L 14 0 L 14 -250 L 169.5 -250 L 169.5 -189.5 Z M 80.5 -189.5 "/></g></g></g><g fill="#000000" fill-opacity="1"><g transform="translate(160.799939, 470.712668)"><g><path d="M 105 3 C 135.332031 3.332031 158.664062 -2.832031 175 -15.5 C 191.332031 -28.164062 199.5 -46.5 199.5 -70.5 C 199.5 -83.832031 196.414062 -95.082031 190.25 -104.25 C 184.082031 -113.414062 176.164062 -121.164062 166.5 -127.5 C 156.832031 -133.832031 146.5 -139.25 135.5 -143.75 C 124.5 -148.25 114.164062 -152.164062 104.5 -155.5 C 94.832031 -158.832031 86.914062 -162.082031 80.75 -165.25 C 74.582031 -168.414062 71.5 -172 71.5 -176 C 71.5 -187.332031 82 -193 103 -193 C 112.664062 -193 120.664062 -190.25 127 -184.75 C 133.332031 -179.25 137.5 -171.332031 139.5 -161 L 194.5 -177.5 C 189.164062 -202.164062 178.664062 -221 163 -234 C 147.332031 -247 127.332031 -253.5 103 -253.5 C 72.664062 -253.5 49.414062 -247.164062 33.25 -234.5 C 17.082031 -221.832031 9 -203.664062 9 -180 C 9 -167 12.082031 -155.914062 18.25 -146.75 C 24.414062 -137.582031 32.332031 -129.914062 42 -123.75 C 51.664062 -117.582031 61.914062 -112.414062 72.75 -108.25 C 83.582031 -104.082031 93.832031 -100.332031 103.5 -97 C 113.164062 -93.664062 121.082031 -90.25 127.25 -86.75 C 133.414062 -83.25 136.5 -79.164062 136.5 -74.5 C 136.5 -63.5 126 -58 105 -58 C 95.664062 -58 87.914062 -60.75 81.75 -66.25 C 75.582031 -71.75 71.164062 -79.332031 68.5 -89 L 14 -72.5 C 19.332031 -48.164062 29.832031 -29.414062 45.5 -16.25 C 61.164062 -3.082031 81 3.332031 105 3 Z M 105 3 "/></g></g></g><g fill="#000000" fill-opacity="1"><g transform="translate(370.296798, 470.712668)"><g><path d="M 190.5 -184 L 135 -184 L 135 0 L 68.5 0 L 68.5 -184 L 12.5 -184 L 12.5 -250 L 190.5 -250 Z M 190.5 -184 "/></g></g></g><g fill="#ffffff" fill-opacity="1"><g transform="translate(573.299918, 470.712668)"><g><path d="M 107 3.5 C 76.664062 3.5 53.164062 -7.664062 36.5 -30 C 19.832031 -52.332031 11.5 -84 11.5 -125 C 11.5 -166 19.832031 -197.664062 36.5 -220 C 53.164062 -242.332031 76.664062 -253.5 107 -253.5 C 137.664062 -253.5 161.332031 -242.332031 178 -220 C 194.664062 -197.664062 203 -166 203 -125 C 203 -84 194.664062 -52.332031 178 -30 C 161.332031 -7.664062 137.664062 3.5 107 3.5 Z M 107.5 -63 C 117.164062 -63 124.582031 -68.332031 129.75 -79 C 134.914062 -89.664062 137.664062 -105 138 -125 C 137.664062 -145 134.914062 -160.332031 129.75 -171 C 124.582031 -181.664062 117.164062 -187 107.5 -187 C 97.5 -187 89.832031 -181.664062 84.5 -171 C 79.164062 -160.332031 76.5 -145 76.5 -125 C 76.5 -105 79.164062 -89.664062 84.5 -79 C 89.832031 -68.332031 97.5 -63 107.5 -63 Z M 107.5 -63 "/></g></g></g><g fill="#000000" fill-opacity="1"><g transform="translate(787.799907, 470.712668)"><g><path d="M 116 -250 C 140.332031 -250 159.082031 -242.914062 172.25 -228.75 C 185.414062 -214.582031 192 -194.5 192 -168.5 C 192 -144.832031 186.082031 -126.164062 174.25 -112.5 C 162.414062 -98.832031 145.5 -90.832031 123.5 -88.5 L 80.5 -88.5 L 80.5 0 L 14 0 L 14 -250 Z M 110.5 -148 C 125.5 -148 133 -154.832031 133 -168.5 C 133 -181.832031 125.5 -188.832031 110.5 -189.5 L 80.5 -189.5 L 80.5 -148 Z M 110.5 -148 "/></g></g></g><path fill="#ffcc00" d="M 542.214844 299.21875 C 542.183594 304.257812 542.421875 309.28125 542.9375 314.292969 C 543.449219 319.304688 544.234375 324.273438 545.289062 329.199219 C 546.34375 334.125 547.660156 338.976562 549.246094 343.757812 C 550.828125 348.542969 552.664062 353.222656 554.757812 357.804688 C 556.851562 362.386719 559.1875 366.84375 561.765625 371.171875 C 564.339844 375.5 567.144531 379.675781 570.179688 383.695312 C 573.210938 387.71875 576.453125 391.566406 579.902344 395.234375 C 583.355469 398.90625 586.992188 402.375 590.824219 405.648438 L 614.5625 426.257812 L 667.6875 380.261719 L 636.386719 353.128906 C 634.449219 351.472656 632.605469 349.710938 630.859375 347.851562 C 629.113281 345.992188 627.472656 344.042969 625.9375 342.003906 C 624.402344 339.96875 622.984375 337.851562 621.679688 335.660156 C 620.375 333.46875 619.191406 331.210938 618.132812 328.890625 C 617.074219 326.570312 616.144531 324.199219 615.34375 321.777344 C 614.539062 319.355469 613.871094 316.894531 613.339844 314.402344 C 612.804688 311.90625 612.40625 309.390625 612.144531 306.851562 C 611.886719 304.316406 611.761719 301.769531 611.777344 299.21875 C 611.761719 298.078125 611.773438 296.933594 611.816406 295.792969 C 611.855469 294.652344 611.925781 293.511719 612.023438 292.371094 C 612.121094 291.234375 612.246094 290.097656 612.402344 288.964844 C 612.554688 287.832031 612.734375 286.707031 612.945312 285.582031 C 613.15625 284.460938 613.390625 283.339844 613.65625 282.230469 C 613.921875 281.117188 614.214844 280.015625 614.535156 278.917969 C 614.851562 277.820312 615.199219 276.730469 615.574219 275.652344 C 615.945312 274.570312 616.347656 273.5 616.773438 272.441406 C 617.199219 271.382812 617.652344 270.332031 618.128906 269.292969 C 618.609375 268.257812 619.113281 267.230469 619.640625 266.21875 C 620.171875 265.207031 620.726562 264.207031 621.304688 263.222656 C 621.882812 262.238281 622.484375 261.265625 623.113281 260.308594 C 623.738281 259.355469 624.390625 258.414062 625.0625 257.492188 C 625.734375 256.570312 626.429688 255.664062 627.148438 254.773438 C 627.867188 253.886719 628.605469 253.015625 629.367188 252.164062 C 630.128906 251.308594 630.910156 250.476562 631.714844 249.664062 C 632.515625 248.851562 633.339844 248.058594 634.179688 247.285156 C 635.023438 246.511719 635.882812 245.761719 636.761719 245.03125 C 637.640625 244.300781 638.535156 243.59375 639.449219 242.90625 C 640.363281 242.21875 641.296875 241.558594 642.242188 240.917969 C 643.1875 240.277344 644.152344 239.664062 645.128906 239.070312 C 646.105469 238.476562 647.097656 237.910156 648.101562 237.367188 C 649.109375 236.824219 650.125 236.308594 651.15625 235.816406 C 652.1875 235.320312 653.230469 234.855469 654.285156 234.414062 C 655.339844 233.972656 656.402344 233.558594 657.480469 233.171875 C 658.554688 232.78125 659.636719 232.421875 660.730469 232.085938 C 661.824219 231.753906 662.921875 231.445312 664.03125 231.164062 C 665.136719 230.886719 666.253906 230.632812 667.371094 230.40625 C 668.492188 230.183594 669.617188 229.984375 670.75 229.816406 C 671.878906 229.648438 673.011719 229.507812 674.148438 229.394531 C 675.285156 229.28125 676.425781 229.195312 677.566406 229.140625 C 678.707031 229.082031 679.851562 229.054688 680.992188 229.054688 C 682.136719 229.054688 683.277344 229.082031 684.417969 229.140625 C 685.558594 229.195312 686.699219 229.28125 687.835938 229.394531 C 688.972656 229.507812 690.105469 229.648438 691.238281 229.816406 C 692.367188 229.984375 693.492188 230.183594 694.613281 230.40625 C 695.734375 230.632812 696.847656 230.886719 697.957031 231.164062 C 699.0625 231.445312 700.164062 231.753906 701.257812 232.085938 C 702.347656 232.421875 703.433594 232.78125 704.507812 233.171875 C 705.582031 233.558594 706.644531 233.972656 707.699219 234.414062 C 708.753906 234.855469 709.796875 235.320312 710.828125 235.816406 C 711.859375 236.308594 712.878906 236.824219 713.882812 237.367188 C 714.890625 237.910156 715.878906 238.476562 716.859375 239.070312 C 717.835938 239.664062 718.796875 240.277344 719.742188 240.917969 C 720.691406 241.558594 721.621094 242.21875 722.535156 242.90625 C 723.449219 243.59375 724.347656 244.300781 725.226562 245.03125 C 726.105469 245.761719 726.964844 246.511719 727.804688 247.285156 C 728.648438 248.058594 729.46875 248.851562 730.273438 249.664062 C 731.074219 250.476562 731.855469 251.308594 732.617188 252.164062 C 733.378906 253.015625 734.117188 253.886719 734.835938 254.773438 C 735.554688 255.664062 736.25 256.570312 736.925781 257.492188 C 737.597656 258.414062 738.246094 259.355469 738.875 260.308594 C 739.5 261.265625 740.101562 262.238281 740.683594 263.222656 C 741.261719 264.207031 741.816406 265.207031 742.34375 266.21875 C 742.871094 267.230469 743.375 268.257812 743.855469 269.292969 C 744.332031 270.332031 744.785156 271.382812 745.210938 272.441406 C 745.640625 273.5 746.039062 274.570312 746.414062 275.652344 C 746.785156 276.730469 747.132812 277.820312 747.453125 278.917969 C 747.773438 280.015625 748.0625 281.117188 748.328125 282.230469 C 748.59375 283.339844 748.832031 284.460938 749.039062 285.582031 C 749.25 286.707031 749.429688 287.832031 749.585938 288.964844 C 749.738281 290.097656 749.863281 291.234375 749.960938 292.371094 C 750.058594 293.511719 750.128906 294.652344 750.167969 295.792969 C 750.210938 296.933594 750.222656 298.078125 750.207031 299.21875 C 750.222656 301.761719 750.101562 304.296875 749.84375 306.828125 C 749.585938 309.359375 749.191406 311.867188 748.65625 314.351562 C 748.125 316.839844 747.460938 319.289062 746.664062 321.703125 C 745.863281 324.117188 744.9375 326.480469 743.882812 328.796875 C 742.824219 331.109375 741.648438 333.359375 740.347656 335.542969 C 739.046875 337.730469 737.632812 339.835938 736.101562 341.867188 C 734.574219 343.898438 732.9375 345.84375 731.195312 347.695312 C 729.453125 349.550781 727.617188 351.304688 725.6875 352.957031 C 609.359375 453.699219 664.78125 405.835938 590.734375 469.820312 C 586.914062 473.097656 583.28125 476.574219 579.835938 480.246094 C 576.390625 483.921875 573.15625 487.769531 570.128906 491.792969 C 567.101562 495.816406 564.304688 499.992188 561.730469 504.320312 C 559.15625 508.648438 556.828125 513.105469 554.738281 517.6875 C 552.648438 522.269531 550.816406 526.949219 549.234375 531.730469 C 547.65625 536.511719 546.339844 541.363281 545.285156 546.285156 C 544.234375 551.210938 543.449219 556.175781 542.9375 561.1875 C 542.421875 566.195312 542.183594 571.21875 542.214844 576.253906 C 542.199219 578.535156 542.242188 580.8125 542.335938 583.09375 C 542.433594 585.371094 542.585938 587.648438 542.796875 589.917969 C 543.003906 592.191406 543.269531 594.453125 543.589844 596.714844 C 543.914062 598.972656 544.289062 601.222656 544.71875 603.460938 C 545.152344 605.699219 545.636719 607.929688 546.179688 610.144531 C 546.722656 612.359375 547.316406 614.5625 547.96875 616.746094 C 548.617188 618.933594 549.320312 621.105469 550.078125 623.253906 C 550.835938 625.40625 551.644531 627.539062 552.507812 629.652344 C 553.367188 631.761719 554.28125 633.851562 555.246094 635.917969 C 556.210938 637.984375 557.226562 640.027344 558.292969 642.042969 C 559.359375 644.0625 560.476562 646.050781 561.640625 648.011719 C 562.804688 649.972656 564.015625 651.90625 565.273438 653.808594 C 566.53125 655.710938 567.839844 657.582031 569.191406 659.417969 C 570.542969 661.253906 571.9375 663.058594 573.378906 664.828125 C 574.816406 666.597656 576.300781 668.328125 577.828125 670.023438 C 579.351562 671.71875 580.917969 673.378906 582.527344 674.996094 C 584.132812 676.613281 585.78125 678.191406 587.464844 679.730469 C 589.152344 681.265625 590.871094 682.761719 592.632812 684.214844 C 594.390625 685.667969 596.183594 687.074219 598.011719 688.4375 C 599.839844 689.800781 601.703125 691.121094 603.597656 692.394531 C 605.488281 693.664062 607.414062 694.890625 609.367188 696.066406 C 611.320312 697.246094 613.300781 698.371094 615.3125 699.453125 C 617.320312 700.53125 619.355469 701.5625 621.417969 702.539062 C 623.476562 703.519531 625.558594 704.449219 627.664062 705.324219 C 629.769531 706.199219 631.898438 707.023438 634.042969 707.796875 C 636.191406 708.566406 638.355469 709.285156 640.539062 709.953125 C 642.71875 710.617188 644.917969 711.226562 647.128906 711.785156 C 649.339844 712.339844 651.566406 712.84375 653.800781 713.289062 C 656.039062 713.734375 658.285156 714.128906 660.542969 714.464844 C 662.796875 714.800781 665.0625 715.082031 667.332031 715.304688 C 669.601562 715.53125 671.875 715.699219 674.152344 715.808594 C 676.433594 715.921875 678.710938 715.980469 680.992188 715.980469 C 683.273438 715.980469 685.554688 715.921875 687.832031 715.808594 C 690.109375 715.699219 692.382812 715.53125 694.65625 715.304688 C 696.925781 715.082031 699.1875 714.800781 701.445312 714.464844 C 703.699219 714.128906 705.945312 713.734375 708.183594 713.289062 C 710.421875 712.84375 712.644531 712.339844 714.855469 711.785156 C 717.070312 711.226562 719.265625 710.617188 721.449219 709.953125 C 723.628906 709.285156 725.792969 708.566406 727.941406 707.796875 C 730.089844 707.023438 732.214844 706.199219 734.320312 705.324219 C 736.425781 704.449219 738.507812 703.519531 740.570312 702.539062 C 742.628906 701.5625 744.664062 700.53125 746.675781 699.453125 C 748.683594 698.371094 750.664062 697.246094 752.617188 696.066406 C 754.574219 694.890625 756.496094 693.664062 758.390625 692.394531 C 760.285156 691.121094 762.144531 689.800781 763.972656 688.4375 C 765.800781 687.074219 767.59375 685.667969 769.355469 684.214844 C 771.113281 682.761719 772.835938 681.265625 774.519531 679.730469 C 776.207031 678.191406 777.851562 676.613281 779.460938 674.996094 C 781.066406 673.378906 782.632812 671.71875 784.160156 670.023438 C 785.683594 668.328125 787.167969 666.597656 788.609375 664.828125 C 790.050781 663.058594 791.445312 661.253906 792.796875 659.417969 C 794.148438 657.582031 795.453125 655.710938 796.710938 653.808594 C 797.972656 651.90625 799.183594 649.972656 800.347656 648.011719 C 801.511719 646.050781 802.625 644.0625 803.691406 642.042969 C 804.757812 640.027344 805.773438 637.984375 806.738281 635.917969 C 807.703125 633.851562 808.617188 631.761719 809.480469 629.652344 C 810.339844 627.539062 811.152344 625.40625 811.90625 623.253906 C 812.664062 621.105469 813.367188 618.933594 814.019531 616.746094 C 814.667969 614.5625 815.265625 612.359375 815.804688 610.144531 C 816.347656 607.929688 816.835938 605.699219 817.265625 603.460938 C 817.699219 601.222656 818.074219 598.972656 818.394531 596.714844 C 818.714844 594.453125 818.980469 592.191406 819.1875 589.917969 C 819.398438 587.648438 819.550781 585.371094 819.648438 583.09375 C 819.746094 580.8125 819.785156 578.535156 819.769531 576.253906 C 819.804688 571.214844 819.5625 566.191406 819.050781 561.179688 C 818.535156 556.167969 817.75 551.199219 816.695312 546.273438 C 815.640625 541.347656 814.324219 536.496094 812.742188 531.710938 C 811.15625 526.929688 809.320312 522.25 807.226562 517.664062 C 805.132812 513.082031 802.800781 508.628906 800.222656 504.300781 C 797.644531 499.972656 794.839844 495.796875 791.808594 491.773438 C 788.773438 487.753906 785.535156 483.90625 782.082031 480.238281 C 778.632812 476.566406 774.992188 473.09375 771.164062 469.820312 L 747.425781 449.214844 L 694.296875 495.210938 L 725.601562 522.339844 C 727.539062 524 729.378906 525.761719 731.125 527.621094 C 732.871094 529.480469 734.511719 531.429688 736.046875 533.464844 C 737.582031 535.503906 739 537.621094 740.304688 539.8125 C 741.609375 542.003906 742.792969 544.261719 743.851562 546.582031 C 744.910156 548.902344 745.839844 551.273438 746.644531 553.695312 C 747.445312 556.117188 748.113281 558.574219 748.648438 561.070312 C 749.179688 563.566406 749.578125 566.082031 749.839844 568.617188 C 750.101562 571.15625 750.222656 573.703125 750.207031 576.253906 C 750.222656 577.394531 750.210938 578.539062 750.167969 579.679688 C 750.128906 580.820312 750.058594 581.960938 749.960938 583.101562 C 749.863281 584.238281 749.738281 585.375 749.585938 586.507812 C 749.429688 587.636719 749.25 588.765625 749.039062 589.890625 C 748.832031 591.011719 748.59375 592.128906 748.328125 593.242188 C 748.0625 594.351562 747.769531 595.457031 747.453125 596.554688 C 747.132812 597.652344 746.785156 598.742188 746.414062 599.820312 C 746.039062 600.898438 745.640625 601.96875 745.210938 603.03125 C 744.785156 604.089844 744.332031 605.140625 743.855469 606.175781 C 743.375 607.214844 742.871094 608.238281 742.34375 609.253906 C 741.8125 610.265625 741.261719 611.265625 740.683594 612.25 C 740.101562 613.234375 739.5 614.207031 738.875 615.160156 C 738.246094 616.117188 737.597656 617.054688 736.921875 617.980469 C 736.25 618.902344 735.554688 619.808594 734.835938 620.699219 C 734.117188 621.585938 733.378906 622.457031 732.617188 623.308594 C 731.855469 624.160156 731.074219 624.996094 730.273438 625.808594 C 729.46875 626.621094 728.648438 627.414062 727.804688 628.1875 C 726.964844 628.960938 726.105469 629.710938 725.222656 630.441406 C 724.34375 631.171875 723.449219 631.878906 722.535156 632.566406 C 721.621094 633.25 720.691406 633.914062 719.742188 634.554688 C 718.796875 635.191406 717.835938 635.808594 716.855469 636.402344 C 715.878906 636.992188 714.886719 637.5625 713.882812 638.105469 C 712.878906 638.648438 711.859375 639.164062 710.828125 639.65625 C 709.796875 640.148438 708.753906 640.617188 707.699219 641.058594 C 706.644531 641.496094 705.582031 641.914062 704.507812 642.300781 C 703.433594 642.6875 702.347656 643.050781 701.257812 643.382812 C 700.164062 643.71875 699.0625 644.027344 697.957031 644.304688 C 696.847656 644.585938 695.734375 644.839844 694.613281 645.0625 C 693.492188 645.289062 692.367188 645.484375 691.238281 645.65625 C 690.105469 645.824219 688.972656 645.964844 687.835938 646.078125 C 686.699219 646.191406 685.558594 646.273438 684.417969 646.332031 C 683.277344 646.386719 682.136719 646.417969 680.992188 646.417969 C 679.851562 646.417969 678.707031 646.386719 677.566406 646.332031 C 676.425781 646.273438 675.285156 646.191406 674.148438 646.078125 C 673.011719 645.964844 671.878906 645.824219 670.75 645.65625 C 669.617188 645.484375 668.492188 645.289062 667.371094 645.0625 C 666.253906 644.839844 665.136719 644.585938 664.03125 644.304688 C 662.921875 644.027344 661.824219 643.71875 660.730469 643.382812 C 659.636719 643.050781 658.554688 642.6875 657.480469 642.300781 C 656.402344 641.914062 655.339844 641.496094 654.285156 641.058594 C 653.230469 640.617188 652.1875 640.148438 651.15625 639.65625 C 650.125 639.164062 649.109375 638.648438 648.101562 638.105469 C 647.097656 637.5625 646.105469 636.992188 645.128906 636.402344 C 644.152344 635.808594 643.1875 635.191406 642.242188 634.554688 C 641.296875 633.914062 640.363281 633.25 639.449219 632.566406 C 638.535156 631.878906 637.640625 631.171875 636.761719 630.441406 C 635.882812 629.710938 635.023438 628.960938 634.179688 628.1875 C 633.339844 627.414062 632.515625 626.621094 631.714844 625.808594 C 630.910156 624.996094 630.128906 624.160156 629.367188 623.308594 C 628.605469 622.457031 627.867188 621.585938 627.148438 620.699219 C 626.429688 619.808594 625.734375 618.902344 625.0625 617.980469 C 624.390625 617.054688 623.738281 616.117188 623.113281 615.160156 C 622.484375 614.207031 621.882812 613.234375 621.304688 612.25 C 620.726562 611.265625 620.171875 610.265625 619.640625 609.253906 C 619.113281 608.238281 618.609375 607.214844 618.132812 606.175781 C 617.652344 605.140625 617.199219 604.089844 616.773438 603.03125 C 616.347656 601.96875 615.945312 600.898438 615.574219 599.820312 C 615.199219 598.742188 614.855469 597.652344 614.535156 596.554688 C 614.214844 595.457031 613.921875 594.351562 613.65625 593.242188 C 613.390625 592.128906 613.15625 591.011719 612.945312 589.890625 C 612.734375 588.765625 612.554688 587.636719 612.402344 586.507812 C 612.246094 585.375 612.121094 584.238281 612.023438 583.101562 C 611.925781 581.960938 611.855469 580.820312 611.816406 579.679688 C 611.773438 578.539062 611.761719 577.394531 611.777344 576.253906 C 611.761719 573.710938 611.882812 571.171875 612.140625 568.644531 C 612.402344 566.113281 612.796875 563.605469 613.328125 561.117188 C 613.859375 558.632812 614.523438 556.183594 615.324219 553.769531 C 616.121094 551.351562 617.050781 548.988281 618.105469 546.675781 C 619.160156 544.363281 620.339844 542.113281 621.636719 539.929688 C 622.9375 537.742188 624.355469 535.632812 625.882812 533.601562 C 627.414062 531.570312 629.050781 529.628906 630.789062 527.777344 C 632.53125 525.921875 634.367188 524.167969 636.300781 522.515625 C 752.628906 421.773438 697.203125 469.636719 771.25 405.648438 C 773.484375 403.773438 775.65625 401.832031 777.769531 399.820312 C 779.882812 397.808594 781.929688 395.730469 783.910156 393.589844 C 785.890625 391.449219 787.804688 389.25 789.648438 386.988281 C 791.492188 384.726562 793.261719 382.410156 794.960938 380.039062 C 796.660156 377.667969 798.28125 375.246094 799.828125 372.769531 C 801.375 370.296875 802.839844 367.777344 804.226562 365.210938 C 805.617188 362.648438 806.921875 360.039062 808.148438 357.390625 C 809.371094 354.746094 810.511719 352.0625 811.566406 349.34375 C 812.621094 346.621094 813.59375 343.871094 814.476562 341.09375 C 815.359375 338.3125 816.152344 335.507812 816.859375 332.675781 C 817.566406 329.847656 818.1875 326.996094 818.714844 324.128906 C 819.242188 321.261719 819.679688 318.378906 820.027344 315.480469 C 820.375 312.585938 820.628906 309.679688 820.796875 306.769531 C 820.960938 303.855469 821.035156 300.941406 821.015625 298.023438 C 820.996094 295.105469 820.886719 292.195312 820.6875 289.285156 C 820.484375 286.375 820.195312 283.472656 819.8125 280.582031 C 819.429688 277.6875 818.953125 274.8125 818.390625 271.949219 C 817.828125 269.085938 817.175781 266.246094 816.433594 263.425781 C 815.691406 260.605469 814.859375 257.808594 813.941406 255.039062 C 813.027344 252.269531 812.023438 249.535156 810.933594 246.828125 C 809.84375 244.121094 808.671875 241.453125 807.414062 238.820312 C 806.15625 236.1875 804.820312 233.597656 803.398438 231.046875 C 801.980469 228.5 800.480469 226 798.90625 223.542969 C 797.328125 221.089844 795.675781 218.6875 793.949219 216.335938 C 792.222656 213.988281 790.421875 211.691406 788.550781 209.453125 C 786.679688 207.21875 784.738281 205.039062 782.730469 202.925781 C 780.722656 200.808594 778.652344 198.757812 776.515625 196.773438 C 774.378906 194.785156 772.179688 192.871094 769.921875 191.023438 C 767.667969 189.171875 765.355469 187.398438 762.984375 185.695312 C 760.617188 183.992188 758.195312 182.367188 755.726562 180.816406 C 753.253906 179.265625 750.738281 177.792969 748.175781 176.398438 C 745.613281 175.007812 743.007812 173.695312 740.363281 172.46875 C 737.71875 171.238281 735.035156 170.09375 732.320312 169.03125 C 729.601562 167.972656 726.855469 166.996094 724.074219 166.109375 C 721.296875 165.21875 718.492188 164.417969 715.664062 163.707031 C 712.835938 162.992188 709.988281 162.371094 707.121094 161.835938 C 704.25 161.304688 701.371094 160.859375 698.472656 160.507812 C 695.578125 160.15625 692.675781 159.894531 689.761719 159.722656 C 686.851562 159.550781 683.9375 159.472656 681.019531 159.484375 C 678.101562 159.5 675.1875 159.601562 672.277344 159.796875 C 669.367188 159.992188 666.464844 160.28125 663.574219 160.65625 C 660.679688 161.035156 657.804688 161.503906 654.941406 162.0625 C 652.078125 162.617188 649.234375 163.265625 646.410156 164.003906 C 643.589844 164.738281 640.792969 165.5625 638.023438 166.476562 C 635.25 167.390625 632.511719 168.386719 629.804688 169.472656 C 627.09375 170.554688 624.421875 171.722656 621.789062 172.976562 C 619.15625 174.226562 616.5625 175.5625 614.011719 176.976562 C 611.460938 178.390625 608.957031 179.882812 606.496094 181.457031 C 604.039062 183.027344 601.636719 184.675781 599.28125 186.398438 C 596.925781 188.121094 594.628906 189.914062 592.386719 191.78125 C 590.148438 193.648438 587.96875 195.585938 585.847656 197.589844 C 583.726562 199.59375 581.671875 201.664062 579.683594 203.796875 C 577.691406 205.929688 575.773438 208.121094 573.921875 210.375 C 572.066406 212.628906 570.289062 214.9375 568.582031 217.304688 C 566.875 219.667969 565.242188 222.085938 563.6875 224.554688 C 562.132812 227.019531 560.65625 229.535156 559.257812 232.09375 C 557.859375 234.65625 556.542969 237.257812 555.308594 239.902344 C 554.074219 242.542969 552.925781 245.222656 551.859375 247.9375 C 550.792969 250.652344 549.8125 253.398438 548.917969 256.175781 C 548.027344 258.953125 547.21875 261.753906 546.5 264.582031 C 545.785156 267.410156 545.15625 270.257812 544.617188 273.125 C 544.078125 275.992188 543.628906 278.871094 543.269531 281.765625 C 542.914062 284.660156 542.644531 287.566406 542.46875 290.476562 C 542.292969 293.386719 542.207031 296.300781 542.214844 299.21875 Z M 542.214844 299.21875 " fill-opacity="1" fill-rule="nonzero"/></svg>