<svg width="96" height="96" viewBox="0 0 96 96" xmlns="http://www.w3.org/2000/svg" role="img" aria-label="Stophole mark">
  
  <rect width="96" height="96" rx="22" fill="#161614"></rect>
  
  <g fill="#FFC700">
    
    <circle cx="48" cy="22" r="7"></circle>
    <circle cx="62" cy="22" r="7"></circle>
    <circle cx="34" cy="22" r="7"></circle>
    
    <circle cx="20" cy="36" r="7"></circle>
    <rect x="27" y="29" width="14" height="14" rx="3"></rect>
    <rect x="41" y="29" width="14" height="14" rx="3"></rect>
    <rect x="55" y="29" width="14" height="14" rx="3"></rect>
    <circle cx="76" cy="36" r="7"></circle>
    
    <rect x="13" y="43" width="14" height="14" rx="3"></rect>
    <rect x="27" y="43" width="14" height="14" rx="3"></rect>
    <rect x="41" y="43" width="14" height="14" rx="3"></rect>
    <rect x="55" y="43" width="14" height="14" rx="3"></rect>
    <rect x="69" y="43" width="14" height="14" rx="3"></rect>
    
    <circle cx="34" cy="64" r="7"></circle>
    <rect x="41" y="57" width="14" height="14" rx="3"></rect>
    <rect x="55" y="57" width="14" height="14" rx="3"></rect>
    <circle cx="76" cy="64" r="7"></circle>
    
    <circle cx="48" cy="78" r="7"></circle>
    <circle cx="62" cy="78" r="7"></circle>
  </g>
</svg>
