<svg width="360" height="80" viewBox="0 0 360 80" xmlns="http://www.w3.org/2000/svg" role="img" aria-label="Stophole">
  
  <g transform="translate(0,8) scale(0.666)">
    <rect width="96" height="96" rx="22" fill="#161614"></rect>
    <g fill="#FFC700">
      <circle cx="48" cy="22" r="7"></circle>
      <circle cx="62" cy="22" r="7"></circle>
      <circle cx="34" cy="22" r="7"></circle>
      <circle cx="20" cy="36" r="7"></circle>
      <rect x="27" y="29" width="14" height="14" rx="3"></rect>
      <rect x="41" y="29" width="14" height="14" rx="3"></rect>
      <rect x="55" y="29" width="14" height="14" rx="3"></rect>
      <circle cx="76" cy="36" r="7"></circle>
      <rect x="13" y="43" width="14" height="14" rx="3"></rect>
      <rect x="27" y="43" width="14" height="14" rx="3"></rect>
      <rect x="41" y="43" width="14" height="14" rx="3"></rect>
      <rect x="55" y="43" width="14" height="14" rx="3"></rect>
      <rect x="69" y="43" width="14" height="14" rx="3"></rect>
      <circle cx="34" cy="64" r="7"></circle>
      <rect x="41" y="57" width="14" height="14" rx="3"></rect>
      <rect x="55" y="57" width="14" height="14" rx="3"></rect>
      <circle cx="76" cy="64" r="7"></circle>
      <circle cx="48" cy="78" r="7"></circle>
      <circle cx="62" cy="78" r="7"></circle>
    </g>
  </g>
  
  <rect x="186" y="22" width="118" height="40" fill="#FFC700"></rect>
  <text x="80" y="55" font-family="Archivo, &#39;Arial Narrow&#39;, sans-serif" font-size="40" font-weight="900" letter-spacing="-1.5" fill="#161614">STOPHOLE</text>
</svg>